<?xml version="1.0" encoding="utf-8"?>
<!-- Generator: Adobe Illustrator 19.0.1, SVG Export Plug-In . SVG Version: 6.00 Build 0)  -->
<svg version="1.1" id="Layer_1" xmlns="http://www.w3.org/2000/svg" xmlns:xlink="http://www.w3.org/1999/xlink" x="0px" y="0px"
	 viewBox="0 0 83.2 82.9" style="enable-background:new 0 0 83.2 82.9;" xml:space="preserve">
<style type="text/css">
	.st0{fill:#6293CD;}
	.st1{fill:#3F4248;}
</style>
<path class="st0" d="M41.6,0C18.6,0,0,18.6,0,41.6c0,23,18.6,41.6,41.6,41.6c23,0,41.6-18.6,41.6-41.6C83.2,18.6,64.6,0,41.6,0
	L41.6,0z M41.6,78C21.5,78,5.2,61.7,5.2,41.6c0-20.1,16.3-36.4,36.4-36.4C61.7,5.2,78,21.5,78,41.6C78,61.7,61.7,78,41.6,78L41.6,78
	z M41.6,78"/>
<path class="st1" d="M41.6,15.6c-2.9,0-5.2,2.3-5.2,5.2v26c0,2.9,2.3,5.2,5.2,5.2c2.9,0,5.2-2.3,5.2-5.2v-26
	C46.8,17.9,44.5,15.6,41.6,15.6L41.6,15.6z M41.6,15.6"/>
<path class="st1" d="M46.8,62.3c0,2.9-2.3,5.2-5.2,5.2c-2.9,0-5.2-2.3-5.2-5.2c0-2.9,2.3-5.2,5.2-5.2C44.5,57.1,46.8,59.4,46.8,62.3
	L46.8,62.3z M46.8,62.3"/>
</svg>
