<?xml version="1.0" encoding="utf-8"?>
<!-- Generator: Adobe Illustrator 19.0.1, SVG Export Plug-In . SVG Version: 6.00 Build 0)  -->
<svg version="1.1" id="Layer_1" xmlns="http://www.w3.org/2000/svg" xmlns:xlink="http://www.w3.org/1999/xlink" x="0px" y="0px"
	 viewBox="0 0 60 60" style="enable-background:new 0 0 60 60;" xml:space="preserve">
<style type="text/css">
	.st0{fill:#B01E3A;}
	.st1{fill:#7F000C;}
	.st2{fill:#F5D10B;}
	.st3{fill:#FB9700;}
	.st4{fill:#F1C40F;}
</style>
<g>
	<path class="st0" d="M60,30c0,16.6-13.4,30-30,30C13.4,60,0,46.6,0,30C0,13.4,13.4,0,30,0C46.6,0,60,13.4,60,30L60,30z M60,30"/>
	<path class="st1" d="M59.6,25L33.2,7.7v31.5h-5.5v0.9H8.2l0.1,1l27.6,18.1C49.6,56.7,60,44.5,60,30C60,28.3,59.8,26.6,59.6,25
		L59.6,25z M59.6,25"/>
	<path class="st2" d="M36.5,42.4c0,3.6-2.9,6.5-6.5,6.5c-3.6,0-6.5-2.9-6.5-6.5c0-3.6,2.9-6.5,6.5-6.5
		C33.6,35.9,36.5,38.8,36.5,42.4L36.5,42.4z M36.5,42.4"/>
	<path class="st3" d="M30,35.9C30,35.9,30,35.9,30,35.9l0,13c0,0,0,0,0,0c3.6,0,6.5-2.9,6.5-6.5C36.5,38.8,33.6,35.9,30,35.9
		L30,35.9z M30,35.9"/>
	<path class="st3" d="M36.4,43.5c0.1-0.3,0.1-0.7,0.1-1.1c0-3.6-2.9-6.5-6.5-6.5c-3.6,0-6.5,2.9-6.5,6.5c0,0.4,0,0.7,0.1,1.1H36.4z
		 M36.4,43.5"/>
	<path class="st2" d="M33.6,15c-0.9,1-2.3,1.7-3.8,1.7c-1.4,0-2.7-0.6-3.6-1.5c-9.9,2.4-14,13.2-14.6,22.2h37.4
		C48.5,28.2,43.8,17,33.6,15L33.6,15z M33.6,15"/>
	<path class="st2" d="M51.5,37.4h-2.5l-25.4-0.6l-12,0.6H9.5c-1.2,0-2.1,1-2.1,2.1c0,1.2,1,2.1,2.1,2.1h42.1c1.2,0,2.1-1,2.1-2.1
		C53.7,38.3,52.7,37.4,51.5,37.4L51.5,37.4z M51.5,37.4"/>
	<path class="st2" d="M33.6,15c0.8-0.9,1.3-2.1,1.3-3.4c0-2.8-2.3-5.1-5.1-5.1c-2.8,0-5.1,2.3-5.1,5.1c0,1.4,0.6,2.6,1.4,3.5
		c0.9,0.9,1.6,1.6,3,1.6C30.8,16.8,32.7,16.1,33.6,15L33.6,15z M27,11.7c0-1.5,1.3-2.8,2.8-2.8c1.5,0,2.8,1.3,2.8,2.8
		c0,1.5-1.3,2.8-2.8,2.8C28.3,14.5,27,13.2,27,11.7L27,11.7z M27,11.7"/>
	<path class="st3" d="M30,37.4h19C48.5,28.2,43.8,17,33.6,15c-0.9,1-2.2,1.6-3.6,1.7V37.4z M30,37.4"/>
	<path class="st4" d="M51.5,37.4H30v4.3h21.5c1.2,0,2.1-1,2.1-2.1C53.7,38.3,52.7,37.4,51.5,37.4L51.5,37.4z M51.5,37.4"/>
	<path class="st3" d="M30,6.6v2.3c1.5,0.1,2.6,1.3,2.6,2.8c0,1.5-1.2,2.7-2.6,2.8v2.3c1.4-0.1,2.7-0.7,3.6-1.7
		c0.8-0.9,1.3-2.1,1.3-3.4C34.9,8.9,32.7,6.7,30,6.6L30,6.6z M30,6.6"/>
</g>
</svg>
